{
    "accessors" : [
        {
            "bufferView" : 0, 
            "componentType" : 5123, 
            "count" : 3168, 
            "max" : [
                2207
            ], 
            "min" : [
                0
            ], 
            "type" : "SCALAR"
        }, 
        {
            "bufferView" : 1, 
            "componentType" : 5126, 
            "count" : 7200, 
            "max" : [
                22.221948623657227, 
                6.757382869720459, 
                9.102361679077148
            ], 
            "min" : [
                -5.053640842437744, 
                -5.053640842437744, 
                -18.3785343170166
            ], 
            "type" : "VEC3"
        }, 
        {
            "bufferView" : 2, 
            "componentType" : 5126, 
            "count" : 7200, 
            "max" : [
                1.0, 
                0.9984877705574036, 
                1.0
            ], 
            "min" : [
                -1.0, 
                -0.9984877705574036, 
                -1.0
            ], 
            "type" : "VEC3"
        }, 
        {
            "bufferView" : 3, 
            "componentType" : 5123, 
            "count" : 6336, 
            "max" : [
                6911
            ], 
            "min" : [
                2208
            ], 
            "type" : "SCALAR"
        }, 
        {
            "bufferView" : 4, 
            "componentType" : 5126, 
            "count" : 7200, 
            "max" : [
                22.221948623657227, 
                6.757382869720459, 
                9.102361679077148
            ], 
            "min" : [
                -5.053640842437744, 
                -5.053640842437744, 
                -18.3785343170166
            ], 
            "type" : "VEC3"
        }, 
        {
            "bufferView" : 5, 
            "componentType" : 5126, 
            "count" : 7200, 
            "max" : [
                1.0, 
                0.9984877705574036, 
                1.0
            ], 
            "min" : [
                -1.0, 
                -0.9984877705574036, 
                -1.0
            ], 
            "type" : "VEC3"
        }, 
        {
            "bufferView" : 6, 
            "componentType" : 5123, 
            "count" : 1104, 
            "max" : [
                7199
            ], 
            "min" : [
                4416
            ], 
            "type" : "SCALAR"
        }, 
        {
            "bufferView" : 7, 
            "componentType" : 5126, 
            "count" : 7200, 
            "max" : [
                22.221948623657227, 
                6.757382869720459, 
                9.102361679077148
            ], 
            "min" : [
                -5.053640842437744, 
                -5.053640842437744, 
                -18.3785343170166
            ], 
            "type" : "VEC3"
        }, 
        {
            "bufferView" : 8, 
            "componentType" : 5126, 
            "count" : 7200, 
            "max" : [
                1.0, 
                0.9984877705574036, 
                1.0
            ], 
            "min" : [
                -1.0, 
                -0.9984877705574036, 
                -1.0
            ], 
            "type" : "VEC3"
        }, 
        {
            "bufferView" : 9, 
            "componentType" : 5126, 
            "count" : 240, 
            "max" : [
                10.0
            ], 
            "min" : [
                0.041666666666666664
            ], 
            "type" : "SCALAR"
        }, 
        {
            "bufferView" : 10, 
            "componentType" : 5126, 
            "count" : 240, 
            "max" : [
                23.05202293395996, 
                44.31633758544922, 
                57.07426071166992
            ], 
            "min" : [
                -49.80382537841797, 
                -31.020601272583008, 
                -36.76542282104492
            ], 
            "type" : "VEC3"
        }, 
        {
            "bufferView" : 11, 
            "componentType" : 5126, 
            "count" : 240, 
            "max" : [
                10.0
            ], 
            "min" : [
                0.041666666666666664
            ], 
            "type" : "SCALAR"
        }, 
        {
            "bufferView" : 12, 
            "componentType" : 5126, 
            "count" : 240, 
            "max" : [
                0.9964913725852966, 
                0.9595456123352051, 
                0.6552831530570984, 
                1.0
            ], 
            "min" : [
                -0.3946880102157593, 
                -0.8095762133598328, 
                -0.7512102723121643, 
                -0.9063965678215027
            ], 
            "type" : "VEC4"
        }, 
        {
            "bufferView" : 13, 
            "componentType" : 5126, 
            "count" : 240, 
            "max" : [
                10.0
            ], 
            "min" : [
                0.041666666666666664
            ], 
            "type" : "SCALAR"
        }, 
        {
            "bufferView" : 14, 
            "componentType" : 5126, 
            "count" : 240, 
            "max" : [
                1.0, 
                1.0, 
                1.0
            ], 
            "min" : [
                1.0, 
                1.0, 
                1.0
            ], 
            "type" : "VEC3"
        }
    ], 
    "animations" : [
        {
            "channels" : [
                {
                    "name" : "group_2_Action_translation", 
                    "sampler" : 0, 
                    "target" : {
                        "node" : 2, 
                        "path" : "translation"
                    }
                }, 
                {
                    "name" : "group_2_Action_rotation", 
                    "sampler" : 1, 
                    "target" : {
                        "node" : 2, 
                        "path" : "rotation"
                    }
                }, 
                {
                    "name" : "group_2_Action_scale", 
                    "sampler" : 2, 
                    "target" : {
                        "node" : 2, 
                        "path" : "scale"
                    }
                }
            ], 
            "samplers" : [
                {
                    "input" : 9, 
                    "interpolation" : "LINEAR", 
                    "name" : "Action_translation", 
                    "output" : 10
                }, 
                {
                    "input" : 11, 
                    "interpolation" : "LINEAR", 
                    "name" : "Action_rotation", 
                    "output" : 12
                }, 
                {
                    "input" : 13, 
                    "interpolation" : "LINEAR", 
                    "name" : "Action_scale", 
                    "output" : 14
                }
            ]
        }
    ], 
    "asset" : {
        "generator" : "Khronos Blender glTF 2.0 exporter", 
        "version" : "2.0"
    }, 
    "bufferViews" : [
        {
            "buffer" : 0, 
            "byteLength" : 6336, 
            "byteOffset" : 0, 
            "target" : 34963
        }, 
        {
            "buffer" : 0, 
            "byteLength" : 86400, 
            "byteOffset" : 6336, 
            "target" : 34962
        }, 
        {
            "buffer" : 0, 
            "byteLength" : 86400, 
            "byteOffset" : 92736, 
            "target" : 34962
        }, 
        {
            "buffer" : 0, 
            "byteLength" : 12672, 
            "byteOffset" : 179136, 
            "target" : 34963
        }, 
        {
            "buffer" : 0, 
            "byteLength" : 86400, 
            "byteOffset" : 191808, 
            "target" : 34962
        }, 
        {
            "buffer" : 0, 
            "byteLength" : 86400, 
            "byteOffset" : 278208, 
            "target" : 34962
        }, 
        {
            "buffer" : 0, 
            "byteLength" : 2208, 
            "byteOffset" : 364608, 
            "target" : 34963
        }, 
        {
            "buffer" : 0, 
            "byteLength" : 86400, 
            "byteOffset" : 366816, 
            "target" : 34962
        }, 
        {
            "buffer" : 0, 
            "byteLength" : 86400, 
            "byteOffset" : 453216, 
            "target" : 34962
        }, 
        {
            "buffer" : 0, 
            "byteLength" : 960, 
            "byteOffset" : 539616
        }, 
        {
            "buffer" : 0, 
            "byteLength" : 2880, 
            "byteOffset" : 540576
        }, 
        {
            "buffer" : 0, 
            "byteLength" : 960, 
            "byteOffset" : 543456
        }, 
        {
            "buffer" : 0, 
            "byteLength" : 3840, 
            "byteOffset" : 544416
        }, 
        {
            "buffer" : 0, 
            "byteLength" : 960, 
            "byteOffset" : 548256
        }, 
        {
            "buffer" : 0, 
            "byteLength" : 2880, 
            "byteOffset" : 549216
        }
    ], 
    "buffers" : [
        {
            "byteLength" : 552096, 
            "uri" : "H2O.bin"
        }
    ], 
    "cameras" : [
        {
            "name" : "Camera", 
            "perspective" : {
                "aspectRatio" : 1.703595982340029, 
                "yfov" : 0.5033799409866333, 
                "zfar" : 100.0, 
                "znear" : 0.10000000149011612
            }, 
            "type" : "perspective"
        }
    ], 
    "meshes" : [
        {
            "name" : "ID21", 
            "primitives" : [
                {
                    "attributes" : {
                        "NORMAL" : 2, 
                        "POSITION" : 1
                    }, 
                    "indices" : 0
                }, 
                {
                    "attributes" : {
                        "NORMAL" : 5, 
                        "POSITION" : 4
                    }, 
                    "indices" : 3
                }, 
                {
                    "attributes" : {
                        "NORMAL" : 8, 
                        "POSITION" : 7
                    }, 
                    "indices" : 6
                }
            ]
        }
    ], 
    "nodes" : [
        {
            "camera" : 0, 
            "name" : "Correction_Camera", 
            "rotation" : [
                -0.7071067690849304, 
                -0.0, 
                0.0, 
                0.7071067690849304
            ]
        }, 
        {
            "children" : [
                0
            ], 
            "name" : "Camera", 
            "rotation" : [
                0.483536034822464, 
                0.33687159419059753, 
                -0.20870360732078552, 
                0.7804827094078064
            ], 
            "translation" : [
                7.481131553649902, 
                5.34366512298584, 
                6.5076398849487305
            ]
        }, 
        {
            "mesh" : 0, 
            "name" : "group_2", 
            "translation" : [
                -0.85285484790802, 
                -0.9402596950531006, 
                1.3841384649276733
            ]
        }, 
        {
            "name" : "Lamp", 
            "rotation" : [
                0.16907575726509094, 
                0.7558802962303162, 
                -0.27217137813568115, 
                0.570947527885437
            ], 
            "scale" : [
                1.0, 
                1.0, 
                0.9999999403953552
            ], 
            "translation" : [
                4.076245307922363, 
                5.903861999511719, 
                -1.0054539442062378
            ]
        }, 
        {
            "children" : [
                2
            ], 
            "name" : "SketchUp", 
            "scale" : [
                0.02539999969303608, 
                0.02539999969303608, 
                0.02539999969303608
            ]
        }
    ], 
    "scene" : 0, 
    "scenes" : [
        {
            "name" : "Scene", 
            "nodes" : [
                4, 
                3, 
                1
            ]
        }
    ]
}
